<?xml version="1.0" encoding="UTF-8"?>
<!-- Generated by Pixelmator Pro 3.6.17 -->
<svg width="16" height="16" viewBox="0 0 16 16" xmlns="http://www.w3.org/2000/svg">
    <g id="g1">
        <g id="g2">
            <path id="path1" fill="#d5d5d5" stroke="#4d4d4d" stroke-width="0.666667" d="M 14.390857 9.270445 C 15.914545 7.746756 15.734822 5.087799 13.990178 3.343154 C 12.245515 1.598493 9.586578 1.418788 8.062889 2.942477 L 1.552495 9.452871 C 1.001733 10.003633 0.732091 10.766405 0.793203 11.600653 C 0.853048 12.416838 1.224277 13.20467 1.838572 13.818965 C 3.121181 15.101574 5.079762 15.229944 6.204608 14.105099 L 11.991667 8.318039 C 12.350508 7.963247 12.527847 7.469209 12.489583 6.928357 C 12.453703 6.421023 12.213323 5.920989 11.812777 5.520442 C 11.412212 5.119878 10.912215 4.879498 10.404844 4.843616 C 9.863973 4.805372 9.36931 4.983223 9.012078 5.344616 L 3.951513 10.405182 C 3.624449 10.732245 3.650077 11.290119 4.008747 11.648788 C 4.367417 12.00746 4.92531 12.033107 5.252374 11.706042 L 10.316022 6.642395 C 10.347268 6.610922 10.389523 6.597265 10.442765 6.60084 C 10.503954 6.605285 10.575753 6.642394 10.633288 6.69993 C 10.690807 6.757449 10.727859 6.829342 10.732493 6.892194 C 10.734858 6.927091 10.730166 6.978196 10.693605 7.014418 L 4.903841 12.804182 C 4.433181 13.274842 3.590308 13.197805 3.02502 12.632517 C 2.459732 12.067229 2.382694 11.224356 2.853355 10.753695 L 9.36373 4.24332 C 10.233292 3.373872 11.776462 3.502186 12.803786 4.52951 C 13.831109 5.556833 13.959423 7.100003 13.089919 7.969507 L 8.02629 13.033137 C 7.699225 13.360201 7.724874 13.918095 8.083543 14.276764 C 8.442213 14.635435 9.000106 14.661083 9.32717 14.334017 L 14.3908 9.270388 L 14.390857 9.270445 Z"/>
        </g>
    </g>
</svg>
